<svg xmlns="http://www.w3.org/2000/svg" viewBox="0 0 98 96" role="img" aria-label="GitHub">
  <path fill="#111" fill-rule="evenodd" clip-rule="evenodd" d="M48.85 0C21.86 0 0 22.04 0 49.23c0 21.75 14 40.18 33.42 46.69 2.43.46 3.32-1.06 3.32-2.37 0-1.17-.04-4.27-.07-8.38-13.59 2.97-16.46-6.6-16.46-6.6-2.22-5.68-5.43-7.19-5.43-7.19-4.44-3.06.34-3 .34-3 4.9.35 7.49 5.08 7.49 5.08 4.36 7.52 11.43 5.35 14.21 4.09.44-3.18 1.7-5.35 3.1-6.58-10.85-1.24-22.25-5.46-22.25-24.3 0-5.37 1.9-9.76 5.03-13.2-.5-1.24-2.18-6.25.48-13.01 0 0 4.1-1.32 13.43 5.04a46.2 46.2 0 0 1 24.46 0c9.32-6.36 13.42-5.04 13.42-5.04 2.67 6.76.99 11.77.49 13.01 3.13 3.44 5.02 7.83 5.02 13.2 0 18.89-11.42 23.04-22.31 24.26 1.75 1.52 3.32 4.52 3.32 9.11 0 6.58-.06 11.89-.06 13.51 0 1.32.88 2.86 3.36 2.37C83.99 89.39 98 70.97 98 49.23 98 22.04 75.82 0 48.85 0Z"/>
</svg>
